<svg width="581" height="547" viewBox="0 0 581 547" fill="none" xmlns="http://www.w3.org/2000/svg">
<rect opacity="0.7" width="462" height="547" rx="60" fill="#FB923C"/>
<path opacity="0.8" d="M265 48.5705C265 35.5528 280.818 25 300.33 25H559.262C578.43 25 588.183 40.3723 574.831 49.5523L511.643 93L574.831 136.448C588.177 145.628 578.43 161 559.255 161H300.33C280.818 161 265 150.447 265 137.43V48.5705Z" fill="#F97316"/>
<rect x="295" y="161" width="236" height="124" rx="27" fill="#FB923C"/>
<path opacity="0.7" d="M345 315C345 298.431 358.431 285 375 285H462V409H375C358.431 409 345 395.569 345 379V315Z" fill="#FB923C"/>
<g opacity="0.7">
<path d="M97.8 442H211.2C219.988 442 224.382 442 227.988 441.361C237.771 439.628 245.413 434.574 248.034 428.103C249 425.719 249 422.813 249 417C249 411.188 249 408.281 248.034 405.897C245.413 399.426 237.771 394.372 227.988 392.639C224.382 392 219.988 392 211.2 392H168.675H140.325H97.8C89.0115 392 84.6173 392 81.013 392.639C71.2285 394.372 63.5872 399.426 60.9658 405.897C60 408.281 60 411.188 60 417C60 422.813 60 425.719 60.9658 428.103C63.5872 434.574 71.2285 439.628 81.013 441.361C84.6173 442 89.0115 442 97.8 442Z" fill="white" stroke="white" stroke-width="25.6"/>
<path d="M210.2 210H96.8C88.0115 210 83.6173 210 80.013 210.639C70.2285 212.373 62.5872 217.427 59.9658 223.897C59 226.282 59 229.188 59 235C59 240.812 59 243.718 59.9658 246.103C62.5872 252.573 70.2285 257.627 80.013 259.361C83.6173 260 88.0115 260 96.8 260H139.325H167.675H210.2C218.988 260 223.382 260 226.988 259.361C236.771 257.627 244.413 252.573 247.034 246.103C248 243.718 248 240.812 248 235C248 229.188 248 226.282 247.034 223.897C244.413 217.427 236.771 212.373 226.988 210.639C223.382 210 218.988 210 210.2 210Z" fill="white" stroke="white" stroke-width="25.6"/>
<g opacity="0.5">
<path d="M140.277 385.329V266.724H168.611V385.329H140.277Z" fill="white" stroke="white" stroke-width="25.6"/>
</g>
<g opacity="0.5">
<path d="M154.453 158C172.056 158 186.848 170.601 191.041 187.654H117.866C122.057 170.601 136.849 158 154.453 158Z" fill="white" stroke="white" stroke-width="25.6"/>
<path d="M154.453 494.045C136.849 494.045 122.059 481.445 117.866 464.391H191.041C186.848 481.445 172.056 494.045 154.453 494.045Z" fill="white" stroke="white" stroke-width="25.6"/>
</g>
</g>
</svg>
